# xmcd
#
# Track frame offsets:
#	150
#	9998
#	21199
#	31871
#	42430
#	53962
#	63384
#	73325
#	83599
#	95249
#	104630
#	114359
#	125276
#	136947
#	148634
#	159461
#	172139
#	182650
#	193795
#	205558
#	218791
#	230820
#	243044
#	253880
#	266865
#	278672
#	290075
#	301117
#	311677
#	322095
#
# Disc length: 4433 seconds
#
# Revision: 0
# Processed by: cddbd v1.5.2PL0 Copyright (c) Steve Scherf et al.
# Submitted via: EasyCDDAExtractor 10.2.0.1
#
DISCID=c3114f1e
DTITLE=Various Artist - Crescent City Bounce, From Blues To R&B In New Orlean
DTITLE=s - Disc C (1953-55)
DYEAR=2007
DGENRE=Blues
TTITLE0=Earl Johnson - Have You Gone Crazy
TTITLE1=Earl Johnson - Beggin' At Your Mercy
TTITLE2=Earl King - A Mother's Love
TTITLE3=Earl King - I'm Your Best Bet, Baby
TTITLE4=Earl King - What Can I Do
TTITLE5=Earl King - 'Til I Say Well Done
TTITLE6=Earl King - No One But Me
TTITLE7=Earl King - Eating And Sleeping
TTITLE8=Earl King - Sitting And Wondering
TTITLE9=Earl King - Funny Face
TTITLE10=Earl King - Baby, You Can Get Your Gun
TTITLE11=Earl King - Those Lonely, Lonely Nights
TTITLE12=Earl King - I'm Packing Up
TTITLE13=Earl King - Nobody Cares
TTITLE14=Earl King - Mother Told Me Not To Go
TTITLE15=Earl King - Is Everything All Right
TTITLE16=Earl King - Little Girl
TTITLE17=Earl King - My Love Is Strong
TTITLE18=Earl King - It Must Have Been love
TTITLE19=Earl King - I'll Take You Back Home
TTITLE20=Blazer-Boy - Surprise Blues
TTITLE21=Blazer-Boy - Mornin' Train
TTITLE22=Blazer-Boy - Waiting For My Baby
TTITLE23=Blazer-Boy - Joe's Kid Sister
TTITLE24=George Stevenson - Meet Me At Grandma's Joint
TTITLE25=George Stevenson - Teasin' Tan
TTITLE26=Little Sonny Jones - Going Back To The Country
TTITLE27=Little Sonny Jones - Winehead Baby
TTITLE28=Little Sonny Jones - I Got Booted
TTITLE29=Little Sonny Jones - Tend To Your Business Blues
EXTD=
EXTT0=
EXTT1=
EXTT2=
EXTT3=
EXTT4=
EXTT5=
EXTT6=
EXTT7=
EXTT8=
EXTT9=
EXTT10=
EXTT11=
EXTT12=
EXTT13=
EXTT14=
EXTT15=
EXTT16=
EXTT17=
EXTT18=
EXTT19=
EXTT20=
EXTT21=
EXTT22=
EXTT23=
EXTT24=
EXTT25=
EXTT26=
EXTT27=
EXTT28=
EXTT29=
PLAYORDER=
